<?xml version="1.0" encoding="utf-8"?>
<!-- Generator: Adobe Illustrator 22.0.0, SVG Export Plug-In . SVG Version: 6.00 Build 0)  -->
<svg version="1.1" xmlns="http://www.w3.org/2000/svg" xmlns:xlink="http://www.w3.org/1999/xlink" x="0px" y="0px"
	 viewBox="0 0 64 64" style="enable-background:new 0 0 64 64;" xml:space="preserve">
<g id="Layer_1">
	<g>
	</g>
</g>
<g id="Layer_2">
</g>
<g id="Layer_3">
</g>
<g id="Layer_4">
</g>
<g id="Layer_5">
</g>
<g id="Layer_6">
</g>
<g id="Layer_7">
</g>
<g id="Layer_8">
</g>
<g id="Layer_9">
	<g>
		<g>
			<g>
				<circle style="fill:#FCCD45;" cx="32" cy="32" r="28"/>
				<path style="fill:#F8B543;" d="M32,4c-0.3,0-0.7,0-1,0c13.9,0.5,25,12,25,26c0,14.4-11.6,26-26,26C16,56,4.6,44.9,4,31
					c0,0.3,0,0.7,0,1c0,15.5,12.5,28,28,28s28-12.5,28-28C60,16.5,47.5,4,32,4z"/>
			</g>
		</g>
		<path style="fill:none;stroke:#FFFFFF;stroke-width:3;stroke-linecap:round;stroke-miterlimit:10;" d="M19.5,10.3
			c-3.8,2.2-7,5.4-9.2,9.2"/>
	</g>
</g>
<g id="Layer_10">
	<g>
		<path style="fill:none;stroke:#000000;stroke-width:2;stroke-linecap:round;stroke-miterlimit:10;" d="M15.5,25c0-2.8,2.2-5,5-5
			s5,2.2,5,5"/>
		<path style="fill:none;stroke:#000000;stroke-width:2;stroke-linecap:round;stroke-miterlimit:10;" d="M38.5,25c0-2.8,2.2-5,5-5
			c2.8,0,5,2.2,5,5"/>
	</g>
	<path style="fill:#FFFFFF;" d="M39,47.9c0.1-1.5,0.6-2.6,1.5-3.4c0.6-0.5,1.3-0.8,1.8-0.8c0.6-1,1.5-1.6,2.7-1.7
		c-0.6-2.4-1.7-6.4-1.8-6.8c-0.3-1-0.2-2,0.4-2.8c0.6-0.8,1.6-1.4,2.7-1.4c1.4,0,2.5,0.9,2.9,2.2c0,0,0,0,0,0l1.8,6l1.6-5.2
		c0.4-1.5,1.6-2.5,3-2.5c1,0,2,0.5,2.6,1.3c0.6,0.8,0.8,1.8,0.5,2.8l-2,8.6c0.4,0.2,0.8,0.5,1.2,0.9c0.6,0.7,1,1.6,1.1,2.8
		c0.2,2.2-1.8,5.3-3.7,8.1c-0.1,0.1-0.1,0.2-0.2,0.2l-0.3,2.9c-0.1,1.1-1,1.9-2,1.9h-8.2c-1.1,0-1.9-0.8-2-1.9l-0.3-2.6
		c0,0,0-0.1-0.1-0.1C40.8,54.1,38.8,50.8,39,47.9z"/>
	<path style="fill:#E8A442;" d="M53.2,60c0.1,0,0.2-0.1,0.2-0.2l0.4-3.7l0.5-0.7c1-1.3,3.8-5.4,3.7-7.3c-0.1-0.8-0.3-1.3-0.6-1.7
		c-0.2-0.2-0.4-0.3-0.6-0.5l-1.5-0.7l2.6-10.7c0.1-0.5,0-0.9-0.2-1.3c-0.3-0.4-0.8-0.6-1.3-0.6c-0.7,0-1.2,0.4-1.4,1.1l0,0.1
		l-3.8,11.6L47.3,33c-0.2-0.6-0.7-1-1.3-1c-0.5,0-1,0.3-1.3,0.6c-0.3,0.3-0.3,0.7-0.1,1.2l0,0.1c0.2,0.6,1.3,4.7,2,7.2l0.6,2.2
		l-2.3,0.3c-0.6,0.1-1.1,0.4-1.5,1l-0.5,0.7L42,45.5c-0.4,0.1-0.7,0.2-1,0.4c-0.5,0.5-0.9,1.2-1,2.3c-0.3,2.7,2.4,6.4,3.3,7.7
		l0.4,0.6l0.3,3.3c0,0.1,0.1,0.2,0.2,0.2H53.2z"/>
	<path style="fill:none;stroke:#000000;stroke-width:2;stroke-linecap:round;stroke-miterlimit:10;" d="M19.8,50
		c0,0,5.4,5.4,11.3,4.2"/>
</g>
</svg>
