<?xml version="1.0" encoding="utf-8"?>
<!-- Generator: Adobe Illustrator 22.0.0, SVG Export Plug-In . SVG Version: 6.00 Build 0)  -->
<svg version="1.1" xmlns="http://www.w3.org/2000/svg" xmlns:xlink="http://www.w3.org/1999/xlink" x="0px" y="0px"
	 viewBox="0 0 64 64" style="enable-background:new 0 0 64 64;" xml:space="preserve">
<g id="Layer_1">
	<g>
	</g>
</g>
<g id="Layer_2">
</g>
<g id="Layer_3">
</g>
<g id="Layer_4">
</g>
<g id="Layer_5">
</g>
<g id="Layer_6">
</g>
<g id="Layer_7">
</g>
<g id="Layer_8">
</g>
<g id="Layer_9">
	<g>
		<g>
			<g>
				<circle style="fill:#FCCD45;" cx="32" cy="32" r="28"/>
				<path style="fill:#F8B543;" d="M32,4c-0.3,0-0.7,0-1,0c13.9,0.5,25,12,25,26c0,14.4-11.6,26-26,26C16,56,4.6,44.9,4,31
					c0,0.3,0,0.7,0,1c0,15.5,12.5,28,28,28s28-12.5,28-28C60,16.5,47.5,4,32,4z"/>
			</g>
		</g>
		<path style="fill:none;stroke:#FFFFFF;stroke-width:3;stroke-linecap:round;stroke-miterlimit:10;" d="M19.5,10.3
			c-3.8,2.2-7,5.4-9.2,9.2"/>
	</g>
</g>
<g id="Layer_10">
	<path style="fill:none;stroke:#000000;stroke-width:2;stroke-linecap:round;stroke-miterlimit:10;" d="M19.8,50
		c0,0,5.4,5.4,11.3,4.2"/>
	<path d="M57.2,19c-0.9,0-8.4,0.1-10.1,0.3c-2.3,0.2-8.3,1.2-10,1.6c-1.6,0.4-5.1,0.9-5.1,0.9s-3.4-0.4-5.1-0.9
		c-1.6-0.4-7.7-1.4-10-1.6C15.2,19.1,7.7,19,6.8,19c-0.9,0-2.3,0.7-3.8,1.4c0,0,0.3,3,0.9,3.6c0,0,0.8,0.2,1.1,0.7
		c0.3,0.5,1.2,3.6,1.6,4.7C6.9,30.5,7.9,33.2,9,34c1.1,0.8,3.9,2,7.7,2c3.9,0,7.8,0.6,10.5-3.6c2.7-4.2,2.6-6.3,3.3-6.7
		c0.7-0.4,1.5-0.4,1.5-0.4s0.8,0,1.5,0.4c0.7,0.4,0.7,2.5,3.3,6.7c2.7,4.2,6.6,3.6,10.5,3.6c3.9,0,6.6-1.2,7.7-2
		c1.1-0.8,2-3.4,2.4-4.6c0.4-1.2,1.3-4.2,1.6-4.7c0.3-0.5,1.1-0.7,1.1-0.7c0.6-0.6,0.9-3.6,0.9-3.6C59.5,19.7,58.1,19,57.2,19z"/>
	<path style="fill:#F15A24;" d="M54.8,21.9c-1.4-1-8.4-0.6-8.4-0.6s-2.7,0-5.9,0.9c-3.2,0.9-3.8,1.6-4.1,3.8
		c-0.3,2.2,1.4,5.9,2.8,7.2c1.3,1.3,4.1,1.4,7.2,1.4c3.1,0,5.2-0.7,6.4-1.3c1.2-0.6,2.3-3.2,2.8-6.4C56.3,23.8,56,22.8,54.8,21.9z"
		/>
	<path style="fill:#F15A24;" d="M23.4,22.2c-3.2-0.9-5.9-0.9-5.9-0.9s-7-0.4-8.3,0.6c-1.2,0.9-1.4,1.8-0.9,5
		c0.5,3.2,1.6,5.8,2.8,6.4c1.2,0.6,3.3,1.3,6.4,1.3c3.1,0,5.9-0.1,7.2-1.4c1.3-1.3,3.1-5,2.8-7.2C27.1,23.9,26.5,23.1,23.4,22.2z"/>
</g>
</svg>
